<svg xmlns="http://www.w3.org/2000/svg" xmlns:xlink="http://www.w3.org/1999/xlink" width="500" zoomAndPan="magnify" viewBox="0 0 375 374.999991" height="500" preserveAspectRatio="xMidYMid meet" version="1.0"><defs><g/></defs><g fill="#ff0000" fill-opacity="1"><g transform="translate(23.949805, 314.538229)"><g><path d="M 104.375 0 C 101.90625 0 100.566406 -1.128906 100.359375 -3.390625 L 94.5 -35.828125 C 94.5 -36.847656 93.878906 -37.359375 92.640625 -37.359375 L 47.5625 -37.359375 C 46.320312 -37.359375 45.703125 -36.847656 45.703125 -35.828125 L 39.84375 -3.390625 C 39.632812 -1.128906 38.296875 0 35.828125 0 L 7.71875 0 C 4.832031 0 3.703125 -1.335938 4.328125 -4.015625 L 50.03125 -212.765625 C 50.4375 -215.035156 51.773438 -216.171875 54.046875 -216.171875 L 86.78125 -216.171875 C 89.039062 -216.171875 90.378906 -215.035156 90.796875 -212.765625 L 136.5 -4.015625 L 136.5 -2.78125 C 136.5 -0.925781 135.363281 0 133.09375 0 Z M 51.265625 -67.015625 C 51.054688 -65.984375 51.570312 -65.46875 52.8125 -65.46875 L 87.078125 -65.46875 C 88.316406 -65.46875 88.832031 -65.984375 88.625 -67.015625 L 70.71875 -164.59375 C 70.507812 -165.21875 70.195312 -165.53125 69.78125 -165.53125 C 69.375 -165.53125 69.066406 -165.21875 68.859375 -164.59375 Z M 51.265625 -67.015625 "/></g></g></g><g fill="#ff0000" fill-opacity="1"><g transform="translate(186.683279, 314.538229)"><g><path d="M 127.546875 -216.171875 C 128.566406 -216.171875 129.4375 -215.804688 130.15625 -215.078125 C 130.882812 -214.359375 131.25 -213.488281 131.25 -212.46875 L 131.25 -189 C 131.25 -187.96875 130.882812 -187.085938 130.15625 -186.359375 C 129.4375 -185.640625 128.566406 -185.28125 127.546875 -185.28125 L 88.328125 -185.28125 C 87.296875 -185.28125 86.78125 -184.769531 86.78125 -183.75 L 86.78125 -3.703125 C 86.78125 -2.671875 86.414062 -1.796875 85.6875 -1.078125 C 84.96875 -0.359375 84.097656 0 83.078125 0 L 54.65625 0 C 53.625 0 52.75 -0.359375 52.03125 -1.078125 C 51.3125 -1.796875 50.953125 -2.671875 50.953125 -3.703125 L 50.953125 -183.75 C 50.953125 -184.769531 50.4375 -185.28125 49.40625 -185.28125 L 12.359375 -185.28125 C 11.328125 -185.28125 10.445312 -185.640625 9.71875 -186.359375 C 9 -187.085938 8.640625 -187.96875 8.640625 -189 L 8.640625 -212.46875 C 8.640625 -213.488281 9 -214.359375 9.71875 -215.078125 C 10.445312 -215.804688 11.328125 -216.171875 12.359375 -216.171875 Z M 127.546875 -216.171875 "/></g></g></g><g fill="#00ffff" fill-opacity="1"><g transform="translate(48.775653, 308.806734)"><g><path d="M 104.375 0 C 101.90625 0 100.566406 -1.128906 100.359375 -3.390625 L 94.5 -35.828125 C 94.5 -36.847656 93.878906 -37.359375 92.640625 -37.359375 L 47.5625 -37.359375 C 46.320312 -37.359375 45.703125 -36.847656 45.703125 -35.828125 L 39.84375 -3.390625 C 39.632812 -1.128906 38.296875 0 35.828125 0 L 7.71875 0 C 4.832031 0 3.703125 -1.335938 4.328125 -4.015625 L 50.03125 -212.765625 C 50.4375 -215.035156 51.773438 -216.171875 54.046875 -216.171875 L 86.78125 -216.171875 C 89.039062 -216.171875 90.378906 -215.035156 90.796875 -212.765625 L 136.5 -4.015625 L 136.5 -2.78125 C 136.5 -0.925781 135.363281 0 133.09375 0 Z M 51.265625 -67.015625 C 51.054688 -65.984375 51.570312 -65.46875 52.8125 -65.46875 L 87.078125 -65.46875 C 88.316406 -65.46875 88.832031 -65.984375 88.625 -67.015625 L 70.71875 -164.59375 C 70.507812 -165.21875 70.195312 -165.53125 69.78125 -165.53125 C 69.375 -165.53125 69.066406 -165.21875 68.859375 -164.59375 Z M 51.265625 -67.015625 "/></g></g></g><g fill="#00ffff" fill-opacity="1"><g transform="translate(211.509127, 308.806734)"><g><path d="M 127.546875 -216.171875 C 128.566406 -216.171875 129.4375 -215.804688 130.15625 -215.078125 C 130.882812 -214.359375 131.25 -213.488281 131.25 -212.46875 L 131.25 -189 C 131.25 -187.96875 130.882812 -187.085938 130.15625 -186.359375 C 129.4375 -185.640625 128.566406 -185.28125 127.546875 -185.28125 L 88.328125 -185.28125 C 87.296875 -185.28125 86.78125 -184.769531 86.78125 -183.75 L 86.78125 -3.703125 C 86.78125 -2.671875 86.414062 -1.796875 85.6875 -1.078125 C 84.96875 -0.359375 84.097656 0 83.078125 0 L 54.65625 0 C 53.625 0 52.75 -0.359375 52.03125 -1.078125 C 51.3125 -1.796875 50.953125 -2.671875 50.953125 -3.703125 L 50.953125 -183.75 C 50.953125 -184.769531 50.4375 -185.28125 49.40625 -185.28125 L 12.359375 -185.28125 C 11.328125 -185.28125 10.445312 -185.640625 9.71875 -186.359375 C 9 -187.085938 8.640625 -187.96875 8.640625 -189 L 8.640625 -212.46875 C 8.640625 -213.488281 9 -214.359375 9.71875 -215.078125 C 10.445312 -215.804688 11.328125 -216.171875 12.359375 -216.171875 Z M 127.546875 -216.171875 "/></g></g></g><g fill="#000000" fill-opacity="1"><g transform="translate(36.362729, 311.672483)"><g><path d="M 104.375 0 C 101.90625 0 100.566406 -1.128906 100.359375 -3.390625 L 94.5 -35.828125 C 94.5 -36.847656 93.878906 -37.359375 92.640625 -37.359375 L 47.5625 -37.359375 C 46.320312 -37.359375 45.703125 -36.847656 45.703125 -35.828125 L 39.84375 -3.390625 C 39.632812 -1.128906 38.296875 0 35.828125 0 L 7.71875 0 C 4.832031 0 3.703125 -1.335938 4.328125 -4.015625 L 50.03125 -212.765625 C 50.4375 -215.035156 51.773438 -216.171875 54.046875 -216.171875 L 86.78125 -216.171875 C 89.039062 -216.171875 90.378906 -215.035156 90.796875 -212.765625 L 136.5 -4.015625 L 136.5 -2.78125 C 136.5 -0.925781 135.363281 0 133.09375 0 Z M 51.265625 -67.015625 C 51.054688 -65.984375 51.570312 -65.46875 52.8125 -65.46875 L 87.078125 -65.46875 C 88.316406 -65.46875 88.832031 -65.984375 88.625 -67.015625 L 70.71875 -164.59375 C 70.507812 -165.21875 70.195312 -165.53125 69.78125 -165.53125 C 69.375 -165.53125 69.066406 -165.21875 68.859375 -164.59375 Z M 51.265625 -67.015625 "/></g></g></g><g fill="#000000" fill-opacity="1"><g transform="translate(199.096203, 311.672483)"><g><path d="M 127.546875 -216.171875 C 128.566406 -216.171875 129.4375 -215.804688 130.15625 -215.078125 C 130.882812 -214.359375 131.25 -213.488281 131.25 -212.46875 L 131.25 -189 C 131.25 -187.96875 130.882812 -187.085938 130.15625 -186.359375 C 129.4375 -185.640625 128.566406 -185.28125 127.546875 -185.28125 L 88.328125 -185.28125 C 87.296875 -185.28125 86.78125 -184.769531 86.78125 -183.75 L 86.78125 -3.703125 C 86.78125 -2.671875 86.414062 -1.796875 85.6875 -1.078125 C 84.96875 -0.359375 84.097656 0 83.078125 0 L 54.65625 0 C 53.625 0 52.75 -0.359375 52.03125 -1.078125 C 51.3125 -1.796875 50.953125 -2.671875 50.953125 -3.703125 L 50.953125 -183.75 C 50.953125 -184.769531 50.4375 -185.28125 49.40625 -185.28125 L 12.359375 -185.28125 C 11.328125 -185.28125 10.445312 -185.640625 9.71875 -186.359375 C 9 -187.085938 8.640625 -187.96875 8.640625 -189 L 8.640625 -212.46875 C 8.640625 -213.488281 9 -214.359375 9.71875 -215.078125 C 10.445312 -215.804688 11.328125 -216.171875 12.359375 -216.171875 Z M 127.546875 -216.171875 "/></g></g></g></svg>